# xmcd
#
# Track frame offsets: 
#        150
#        13596
#        28975
#        46009
#        64611
#        80612
#        98446
#        113434
#        134245
#        150681
#        165145
#        180864
#        197376
#
# Disc length: 2883 seconds
#
# Revision: 2
# Processed by: cddbd v1.5.2PL0 Copyright (c) Steve Scherf et al.
# Submitted via: ExactAudioCopy v0.95a4
#
DISCID=8f0b410d
DTITLE=Calo Rapallo - Verzähls deim Frisör
DYEAR=2005
DGENRE=Blues
TTITLE0=Es geht mir gut
TTITLE1=Verzähls deim Frisör
TTITLE2=So wars, so ischs und so bleibts
TTITLE3=Weil du so schüchtern bisch
TTITLE4=Ma come mai
TTITLE5=Kann mir mal jemand sagen
TTITLE6=Brot für die Welt
TTITLE7=Ich steh an der Straße
TTITLE8=Unkraut
TTITLE9=Alte Liebe
TTITLE10=Du kannsch me mol
TTITLE11=Tiger Lilly
TTITLE12=Zartes Lila
EXTD=Year: 2005\n\n\n\n\n\n                                           
EXTD=        www.calorapallo.de
EXTT0=
EXTT1=
EXTT2=
EXTT3=
EXTT4=
EXTT5=
EXTT6=
EXTT7=
EXTT8=
EXTT9=
EXTT10=
EXTT11=
EXTT12=
PLAYORDER=
